<?xml version="1.0" standalone="no"?>
<!DOCTYPE svg PUBLIC "-//W3C//DTD SVG 20010904//EN"
 "http://www.w3.org/TR/2001/REC-SVG-20010904/DTD/svg10.dtd">
<svg version="1.0" xmlns="http://www.w3.org/2000/svg"
 width="700.000000pt" height="700.000000pt" viewBox="0 0 700.000000 700.000000"
 preserveAspectRatio="xMidYMid meet">
<metadata>
Created by potrace 1.14, written by Peter Selinger 2001-2017
</metadata>
<g transform="translate(0.000000,700.000000) scale(0.100000,-0.100000)"
fill="#000000" stroke="none">
<path d="M2247 5924 c-1 -1 -29 -4 -63 -7 -95 -9 -151 -26 -249 -72 -182 -87
-311 -259 -354 -472 -17 -83 -18 -211 -17 -2192 l1 -2105 445 -1 c245 0 450 1
455 2 7 2 10 537 10 1583 0 869 3 1580 7 1580 4 0 12 -9 18 -20 6 -12 71 -112
144 -223 252 -383 369 -562 424 -647 31 -47 137 -209 237 -360 99 -151 210
-320 245 -375 36 -55 128 -195 205 -312 77 -117 198 -302 270 -410 261 -400
334 -511 434 -663 l101 -155 438 0 437 1 1 2421 c2 2239 1 2421 -15 2425 -13
3 -876 2 -891 -1 -3 -1 -5 -714 -5 -1586 0 -872 -3 -1585 -6 -1585 -4 0 -49
64 -100 143 -181 278 -303 464 -407 622 -58 88 -189 288 -292 445 -181 277
-285 436 -475 725 -50 77 -136 208 -191 290 -54 83 -102 157 -107 165 -4 8
-121 188 -260 399 l-253 385 -93 0 c-51 1 -93 0 -94 0z"/>
</g>
</svg>
